<svg xmlns="http://www.w3.org/2000/svg" viewBox="0 0 920 600" font-family="PingFang SC, Microsoft YaHei, sans-serif">
<style>.t{font-size:16px;fill:#0F172A;font-weight:600}.s{font-size:13px;fill:#475569}.h{font-size:20px;fill:#0F172A;font-weight:700}.box{fill:#F8FAFC;stroke:#CBD5E1;rx:10}.blue{fill:#EFF6FF;stroke:#3B82F6}.amber{fill:#FFFBEB;stroke:#F59E0B}.green{fill:#ECFDF5;stroke:#10B981}.rose{fill:#FFF1F2;stroke:#F43F5E}.line{stroke:#94A3B8;fill:none;stroke-width:2}.lt{font-size:14px;fill:#334155;font-weight:600}</style>
<rect width="920" height="600" fill="#FFFFFF"/>
<text x="460" y="40" text-anchor="middle" class="h">DDD 专题地图：从方法论到落地</text>
<rect x="40" y="80" width="260" height="90" rx="10" class="box blue"/>
<text x="170" y="118" text-anchor="middle" class="lt">战略设计</text>
<text x="170" y="145" text-anchor="middle" class="s">子域 · 限界上下文 · 上下文映射</text>
<rect x="330" y="80" width="260" height="90" rx="10" class="box amber"/>
<text x="460" y="118" text-anchor="middle" class="lt">战术设计</text>
<text x="460" y="145" text-anchor="middle" class="s">实体 · 值对象 · 领域服务 · 领域事件</text>
<rect x="620" y="80" width="260" height="90" rx="10" class="box green"/>
<text x="750" y="118" text-anchor="middle" class="lt">落地架构</text>
<text x="750" y="145" text-anchor="middle" class="s">六边形 · 模块化单体 · Spring Modulith</text>
<rect x="40" y="220" width="410" height="90" rx="10" class="box rose"/>
<text x="245" y="258" text-anchor="middle" class="lt">聚合设计（战术设计的核心难点）</text>
<text x="245" y="285" text-anchor="middle" class="s">不变量 · 边界判据 · 一致性取舍</text>
<rect x="470" y="220" width="410" height="90" rx="10" class="box blue"/>
<text x="675" y="258" text-anchor="middle" class="lt">仓储与持久化</text>
<text x="675" y="285" text-anchor="middle" class="s">聚合仓储 · 事务边界 · 防贫血落地</text>
<rect x="40" y="360" width="410" height="90" rx="10" class="box green"/>
<text x="245" y="398" text-anchor="middle" class="lt">领域事件与最终一致性</text>
<text x="245" y="425" text-anchor="middle" class="s">事件命名 · Outbox · 幂等消费</text>
<rect x="470" y="360" width="410" height="90" rx="10" class="box amber"/>
<text x="675" y="398" text-anchor="middle" class="lt">实战：博客平台文章发布域</text>
<text x="675" y="425" text-anchor="middle" class="s">四步落地 · 与项目 CoreFlow 呼应</text>
<rect x="230" y="500" width="460" height="70" rx="10" class="box"/>
<text x="460" y="530" text-anchor="middle" class="lt">FAQ：常见问题与反模式</text>
<text x="460" y="553" text-anchor="middle" class="s">贫血模型 · 大聚合 · 为拆而拆</text>
<line x1="300" y1="170" x2="200" y2="220" class="line"/>
<line x1="620" y1="170" x2="700" y2="220" class="line"/>
<line x1="460" y1="310" x2="460" y2="360" class="line"/>
<line x1="460" y1="450" x2="460" y2="500" class="line"/>

</svg>